<svg width="24" height="24" viewBox="0 0 24 24" fill="none" xmlns="http://www.w3.org/2000/svg">
<path d="M19 5.33333H16V4.22222C16 3.63285 15.7893 3.06762 15.4142 2.65087C15.0391 2.23413 14.5304 2 14 2H10C9.46957 2 8.96086 2.23413 8.58579 2.65087C8.21071 3.06762 8 3.63285 8 4.22222V5.33333H5C4.20435 5.33333 3.44129 5.68452 2.87868 6.30964C2.31607 6.93477 2 7.78261 2 8.66667V18.6667C2 19.5507 2.31607 20.3986 2.87868 21.0237C3.44129 21.6488 4.20435 22 5 22H19C19.7956 22 20.5587 21.6488 21.1213 21.0237C21.6839 20.3986 22 19.5507 22 18.6667V8.66667C22 7.78261 21.6839 6.93477 21.1213 6.30964C20.5587 5.68452 19.7956 5.33333 19 5.33333ZM10 4.22222H14V5.33333H10V4.22222ZM20 18.6667C20 18.9614 19.8946 19.244 19.7071 19.4523C19.5196 19.6607 19.2652 19.7778 19 19.7778H5C4.73478 19.7778 4.48043 19.6607 4.29289 19.4523C4.10536 19.244 4 18.9614 4 18.6667V12.4333L8.68 14.2222C8.78618 14.2382 8.89382 14.2382 9 14.2222H15C15.1084 14.22 15.2161 14.2013 15.32 14.1667L20 12.4333V18.6667ZM20 10.0889L14.84 12H9.16L4 10.0889V8.66667C4 8.37198 4.10536 8.08937 4.29289 7.88099C4.48043 7.67262 4.73478 7.55556 5 7.55556H19C19.2652 7.55556 19.5196 7.67262 19.7071 7.88099C19.8946 8.08937 20 8.37198 20 8.66667V10.0889Z" fill="black"/>
</svg>
