<svg width="13" height="11" viewBox="0 0 13 11" fill="none" xmlns="http://www.w3.org/2000/svg">
<path d="M2.72 10.048L0.976 6.112C0.869334 5.87733 0.858667 5.648 0.944 5.424C1.04 5.18933 1.20533 5.01867 1.44 4.912L2.416 4.48C2.65067 4.37333 2.88 4.368 3.104 4.464C3.328 4.54933 3.49333 4.70933 3.6 4.944L4.736 7.536C4.736 7.54667 4.74667 7.552 4.768 7.552C4.77867 7.552 4.784 7.54667 4.784 7.536C6.352 5.01867 8.096 2.63467 10.016 0.384C10.176 0.192 10.3787 0.0906661 10.624 0.079999C10.88 0.0586659 11.0987 0.133333 11.28 0.304L12.08 1.008C12.272 1.17867 12.3733 1.392 12.384 1.648C12.3947 1.89333 12.32 2.112 12.16 2.304C10.0693 4.75733 8.21333 7.35467 6.592 10.096C6.28267 10.6187 5.824 10.88 5.216 10.88H4C3.73333 10.88 3.48267 10.8053 3.248 10.656C3.01333 10.496 2.83733 10.2933 2.72 10.048Z" fill="#FAFAFA"/>
</svg>
