<svg width="24" height="24" viewBox="0 0 24 24" fill="none" xmlns="http://www.w3.org/2000/svg">
<path fill-rule="evenodd" clip-rule="evenodd" d="M14.6722 7.04552L9.62323 12.0898L11.9064 14.3328L16.9679 9.28046C21.7061 4.55073 22.0274 4.22023 21.9984 4.10507C21.947 3.90045 21.6675 3.55728 21.0605 2.95357C20.5447 2.44049 20.3305 2.25024 20.18 2.17151C20.1278 2.14416 20.0686 2.0941 20.0486 2.06025C20.0286 2.02641 19.9467 1.99933 19.8666 2.00001C19.7346 2.00119 19.2515 2.47039 14.6722 7.04552Z" fill="#EC4675"/>
<path d="M7.9565 13.2256C7.89307 13.3281 7.67137 13.5945 7.56199 13.6996C7.50567 13.7537 7.45962 13.8196 7.45962 13.8458C7.45962 13.8721 7.44429 13.9004 7.4255 13.9088C7.3932 13.9231 7.28837 14.0406 6.85119 14.5527C6.61502 14.8293 4.47799 16.9904 4.44063 16.9904C4.42544 16.9904 4.34423 17.0568 4.26024 17.138C4.17621 17.2193 4.01715 17.3645 3.90677 17.4608C3.27728 18.0101 3.15703 18.1168 3.01626 18.251C2.93109 18.3323 2.84492 18.3987 2.82472 18.3987C2.80457 18.3987 2.71266 18.4754 2.62053 18.5691C2.5284 18.6628 2.41766 18.7721 2.37439 18.8121C2.12958 19.0383 2 19.3051 2 19.5832C2 19.7854 2.11429 20.0786 2.19336 20.0793C2.21211 20.0794 2.22753 20.1052 2.22753 20.1364C2.22758 20.1676 2.27867 20.2545 2.34114 20.3294C2.58368 20.6206 2.89228 20.9642 3.00093 21.064C3.06349 21.1214 3.20326 21.2496 3.31149 21.3489C3.41973 21.4482 3.5458 21.5413 3.59166 21.5558C3.63748 21.5703 3.68648 21.6121 3.70049 21.6486C3.71455 21.6851 3.75518 21.715 3.79085 21.715C3.82647 21.715 3.86742 21.7457 3.88184 21.7832C3.89622 21.8206 3.93685 21.8513 3.97211 21.8513C4.00737 21.8513 4.06169 21.882 4.09286 21.9195C4.13394 21.9689 4.24281 21.9876 4.48963 21.9876C4.57579 21.9876 4.65682 21.9919 4.72981 22L5.16203 21.6179L5.2644 21.5474C5.32068 21.5086 5.36677 21.4494 5.36677 21.416C5.36677 21.3826 5.44866 21.2796 5.54876 21.1871C5.64885 21.0946 5.73074 21.0021 5.73074 20.9815C5.73074 20.9608 5.83297 20.8363 5.95791 20.7048C6.08289 20.5733 6.21083 20.4339 6.24226 20.395C6.90065 19.581 8.86916 17.5969 9.80772 16.8013C9.93556 16.6929 10.1066 16.548 10.1877 16.4793C10.2689 16.4106 10.3485 16.3537 10.3647 16.3529C10.3809 16.3522 10.4648 16.2806 10.5512 16.1939C10.6376 16.1073 10.7238 16.0364 10.7428 16.0364L7.9565 13.2256Z" fill="#DDDDDD"/>
<path d="M9.62323 12.0898L9.40985 12.0605C9.28869 12.0438 9.15834 12.0515 9.10829 12.0783C9.01707 12.127 8.02451 13.1157 7.9565 13.2256L10.7428 16.0364C10.7618 16.0364 11.0351 15.7794 11.3502 15.4653L11.9229 14.8942L11.9147 14.6135L11.9064 14.3328L9.62323 12.0898Z" fill="#717171"/>
</svg>
