<svg width="16" height="16" viewBox="0 0 16 16" fill="none" xmlns="http://www.w3.org/2000/svg">
<path d="M3.73333 12.2667L3.27573 11.9925C3.21453 12.0945 3.18918 12.214 3.20372 12.3321C3.21825 12.4502 3.27182 12.56 3.35593 12.6441C3.44004 12.7282 3.54984 12.7818 3.6679 12.7963C3.78595 12.8108 3.90547 12.7855 4.00747 12.7243L3.73333 12.2667ZM6.93333 6.93333L6.6592 6.47573L6.54507 6.54507L6.47573 6.6592L6.93333 6.93333ZM12.2667 3.73333L12.7243 4.00747C12.7855 3.90547 12.8108 3.78595 12.7963 3.6679C12.7818 3.54984 12.7282 3.44004 12.6441 3.35593C12.56 3.27182 12.4502 3.21825 12.3321 3.20372C12.214 3.18918 12.0945 3.21453 11.9925 3.27573L12.2667 3.73333ZM9.06667 9.06667L9.3408 9.52427L9.45493 9.45493L9.52427 9.3408L9.06667 9.06667ZM14.9333 8C14.9333 8.9105 14.754 9.81208 14.4056 10.6533C14.0571 11.4945 13.5464 12.2588 12.9026 12.9026C12.2588 13.5464 11.4945 14.0571 10.6533 14.4056C9.81208 14.754 8.9105 14.9333 8 14.9333V16C10.1217 16 12.1566 15.1571 13.6569 13.6569C15.1571 12.1566 16 10.1217 16 8H14.9333ZM8 14.9333C6.16117 14.9333 4.39765 14.2029 3.09739 12.9026C1.79714 11.6024 1.06667 9.83883 1.06667 8H0C0 10.1217 0.842855 12.1566 2.34315 13.6569C3.84344 15.1571 5.87827 16 8 16V14.9333ZM1.06667 8C1.06667 6.16117 1.79714 4.39765 3.09739 3.09739C4.39765 1.79714 6.16117 1.06667 8 1.06667V0C5.87827 0 3.84344 0.842855 2.34315 2.34315C0.842855 3.84344 0 5.87827 0 8H1.06667ZM8 1.06667C8.9105 1.06667 9.81208 1.246 10.6533 1.59444C11.4945 1.94287 12.2588 2.45357 12.9026 3.09739C13.5464 3.74121 14.0571 4.50554 14.4056 5.34673C14.754 6.18792 14.9333 7.0895 14.9333 8H16C16 5.87827 15.1571 3.84344 13.6569 2.34315C12.1566 0.842855 10.1217 0 8 0V1.06667ZM4.19093 12.5408L5.28953 10.7098L7.32113 7.3238L7.39093 7.20747L6.47573 6.6592L3.27573 11.9925L4.19093 12.5408ZM7.20747 7.392L7.32113 7.3238L10.7115 5.2896L12.5408 4.192L11.9925 3.27573L6.6592 6.47573L7.20747 7.392ZM11.8091 3.46027L10.7115 5.2896L8.67987 8.6756L8.60907 8.7936L9.52427 9.34187L12.7243 4.00747L11.8091 3.46027ZM8.79253 8.608L8.67987 8.6756L5.28953 10.7098L3.4592 11.808L4.00747 12.7243L9.3408 9.52427L8.79253 8.608Z" fill="#FF4F86"/>
<path d="M7.32113 7.3238L5.28953 10.7098L8.67987 8.6756L10.7115 5.2896L7.32113 7.3238Z" fill="#FF4F86"/>
</svg>
