<svg width="15" height="18" viewBox="0 0 15 18" fill="none" xmlns="http://www.w3.org/2000/svg">
<path d="M10.2308 6.53846H11.7692C12.1773 6.53846 12.5686 6.70055 12.8571 6.98907C13.1456 7.27758 13.3077 7.6689 13.3077 8.07692V15.4615C13.3077 15.8696 13.1456 16.2609 12.8571 16.5494C12.5686 16.8379 12.1773 17 11.7692 17H2.53846C2.13044 17 1.73912 16.8379 1.4506 16.5494C1.16209 16.2609 1 15.8696 1 15.4615V8.07692C1 7.6689 1.16209 7.27758 1.4506 6.98907C1.73912 6.70055 2.13044 6.53846 2.53846 6.53846H4.07692M10.2308 4.07692L7.15385 1M7.15385 1L4.07692 4.07692M7.15385 1V11.5" stroke="#FF4F86" stroke-width="1.5" stroke-linecap="round" stroke-linejoin="round"/>
</svg>
